<?xml version="1.0" encoding="utf-8" standalone="no"?>
<!DOCTYPE svg PUBLIC "-//W3C//DTD SVG 1.1//EN"
  "http://www.w3.org/Graphics/SVG/1.1/DTD/svg11.dtd">
<svg xmlns:xlink="http://www.w3.org/1999/xlink" width="720pt" height="408.329677pt" viewBox="0 0 720 408.329677" xmlns="http://www.w3.org/2000/svg" version="1.1">
 <metadata>
  <rdf:RDF xmlns:dc="http://purl.org/dc/elements/1.1/" xmlns:cc="http://creativecommons.org/ns#" xmlns:rdf="http://www.w3.org/1999/02/22-rdf-syntax-ns#">
   <cc:Work>
    <dc:type rdf:resource="http://purl.org/dc/dcmitype/StillImage"/>
    <dc:date>2026-06-19T16:43:07.677574</dc:date>
    <dc:format>image/svg+xml</dc:format>
    <dc:creator>
     <cc:Agent>
      <dc:title>Matplotlib v3.9.4, https://matplotlib.org/</dc:title>
     </cc:Agent>
    </dc:creator>
   </cc:Work>
  </rdf:RDF>
 </metadata>
 <defs>
  <style type="text/css">*{stroke-linejoin: round; stroke-linecap: butt}</style>
 </defs>
 <g id="figure_1">
  <g id="patch_1">
   <path d="M 0 408.329677 
L 720 408.329677 
L 720 0 
L 0 0 
z
" style="fill: #ffffff"/>
  </g>
  <g id="axes_1">
   <g id="patch_2">
    <path d="M 26.604 264.121727 
L 114.216 264.121727 
Q 117.156 264.121727 117.156 261.774527 
L 117.156 144.883967 
Q 117.156 142.536767 114.216 142.536767 
L 26.604 142.536767 
Q 23.664 142.536767 23.664 144.883967 
L 23.664 261.774527 
Q 23.664 264.121727 26.604 264.121727 
z
" clip-path="url(#p2cc7025763)" style="fill: #ffffff; stroke: #808080; stroke-linejoin: miter"/>
   </g>
   <g id="patch_3">
    <path d="M 120.158733 153.426606 
Q 133.62229 143.473954 146.276698 134.119449 
" clip-path="url(#p2cc7025763)" style="fill: none; stroke-dasharray: 3.6,2.7; stroke-dashoffset: 0; stroke: #808080; stroke-width: 0.9; stroke-linecap: round"/>
    <path d="M 141.87126 134.888941 
L 146.276698 134.119449 
L 144.249029 138.105494 
z
" clip-path="url(#p2cc7025763)" style="fill: #808080; stroke-dasharray: 3.6,2.7; stroke-dashoffset: 0; stroke: #808080; stroke-width: 0.9; stroke-linecap: round"/>
   </g>
   <g id="patch_4">
    <path d="M 120.670362 252.095822 
Q 133.61762 254.967119 145.582514 257.620558 
" clip-path="url(#p2cc7025763)" style="fill: none; stroke-dasharray: 3.6,2.7; stroke-dashoffset: 0; stroke: #808080; stroke-width: 0.9; stroke-linecap: round"/>
    <path d="M 142.110408 254.801963 
L 145.582514 257.620558 
L 141.244374 258.707086 
z
" clip-path="url(#p2cc7025763)" style="fill: #808080; stroke-dasharray: 3.6,2.7; stroke-dashoffset: 0; stroke: #808080; stroke-width: 0.9; stroke-linecap: round"/>
   </g>
   <g id="patch_5">
    <path d="M 306.636775 140.442367 
Q 330.600425 156.38553 353.353977 171.523607 
" clip-path="url(#p2cc7025763)" style="fill: none; stroke: #000000; stroke-width: 1.3; stroke-linecap: round"/>
    <path d="M 350.242534 166.090475 
L 353.353977 171.523607 
L 347.140606 170.752883 
z
" clip-path="url(#p2cc7025763)" style="stroke: #000000; stroke-width: 1.3; stroke-linecap: round"/>
   </g>
   <g id="patch_6">
    <path d="M 306.636775 249.785727 
Q 330.600425 233.842564 353.353977 218.704487 
" clip-path="url(#p2cc7025763)" style="fill: none; stroke: #000000; stroke-width: 1.3; stroke-linecap: round"/>
    <path d="M 347.140606 219.475211 
L 353.353977 218.704487 
L 350.242534 224.137618 
z
" clip-path="url(#p2cc7025763)" style="stroke: #000000; stroke-width: 1.3; stroke-linecap: round"/>
   </g>
   <g id="patch_7">
    <path d="M 507.062087 195.114047 
Q 524.638855 195.114047 540.650376 195.114047 
" clip-path="url(#p2cc7025763)" style="fill: none; stroke: #000000; stroke-width: 1.4; stroke-linecap: round"/>
    <path d="M 535.050376 192.314047 
L 540.650376 195.114047 
L 535.050376 197.914047 
z
" clip-path="url(#p2cc7025763)" style="stroke: #000000; stroke-width: 1.4; stroke-linecap: round"/>
   </g>
   <g id="patch_8">
    <path d="M 286.395147 102.590815 
Q 443.445354 48.861294 565.404595 159.219207 
" clip-path="url(#p2cc7025763)" style="fill: none; stroke: #000000; stroke-width: 1.35; stroke-linecap: round"/>
    <path d="M 563.130916 153.38565 
L 565.404595 159.219207 
L 559.373542 157.538016 
z
" clip-path="url(#p2cc7025763)" style="stroke: #000000; stroke-width: 1.35; stroke-linecap: round"/>
   </g>
   <g id="patch_9">
    <path d="M 286.395147 287.637278 
Q 443.445354 341.366799 565.404595 231.008887 
" clip-path="url(#p2cc7025763)" style="fill: none; stroke: #000000; stroke-width: 1.35; stroke-linecap: round"/>
    <path d="M 559.373542 232.690078 
L 565.404595 231.008887 
L 563.130916 236.842444 
z
" clip-path="url(#p2cc7025763)" style="stroke: #000000; stroke-width: 1.35; stroke-linecap: round"/>
   </g>
   <g id="text_1">
    <text style="fill: #333333; font: 9.5px 'DejaVu Serif', 'Times New Roman', 'Times', serif; text-anchor: middle" x="70.41" y="161.119133" transform="rotate(-0 70.41 161.119133)">Theoretical</text>
   </g>
   <g id="text_2">
    <text style="fill: #333333; font: 9.5px 'DejaVu Serif', 'Times New Roman', 'Times', serif; text-anchor: middle" x="70.41" y="172.385693" transform="rotate(-0 70.41 172.385693)">foundations</text>
   </g>
   <g id="text_3">
    <text style="fill: #808080; font: 8.8px 'DejaVu Serif', 'Times New Roman', 'Times', serif" transform="translate(42.525 192.024859)">Flow Theory</text>
    <text style="fill: #808080; font: 8.8px 'DejaVu Serif', 'Times New Roman', 'Times', serif" transform="translate(70.41 202.004059)"/>
    <text style="fill: #808080; font: 8.8px 'DejaVu Serif', 'Times New Roman', 'Times', serif" transform="translate(28.125312 211.858134)">Self-Determination</text>
    <text style="fill: #808080; font: 8.8px 'DejaVu Serif', 'Times New Roman', 'Times', serif" transform="translate(54.798937 221.712209)">Theory</text>
   </g>
   <g id="patch_10">
    <path d="M 153.906 146.527007 
L 301.494 146.527007 
Q 305.022 146.527007 305.022 143.710367 
L 305.022 100.991327 
Q 305.022 98.174687 301.494 98.174687 
L 153.906 98.174687 
Q 150.378 98.174687 150.378 100.991327 
L 150.378 143.710367 
Q 150.378 146.527007 153.906 146.527007 
z
" clip-path="url(#p2cc7025763)" style="fill: #ffffff; stroke: #000000; stroke-width: 1.2; stroke-linejoin: miter"/>
   </g>
   <g id="patch_11">
    <path d="M 153.906 292.053407 
L 301.494 292.053407 
Q 305.022 292.053407 305.022 289.236767 
L 305.022 246.517727 
Q 305.022 243.701087 301.494 243.701087 
L 153.906 243.701087 
Q 150.378 243.701087 150.378 246.517727 
L 150.378 289.236767 
Q 150.378 292.053407 153.906 292.053407 
z
" clip-path="url(#p2cc7025763)" style="fill: #ffffff; stroke: #000000; stroke-width: 1.2; stroke-linejoin: miter"/>
   </g>
   <g id="patch_12">
    <path d="M 353.826 219.290207 
L 501.414 219.290207 
Q 504.942 219.290207 504.942 216.473567 
L 504.942 173.754527 
Q 504.942 170.937887 501.414 170.937887 
L 353.826 170.937887 
Q 350.298 170.937887 350.298 173.754527 
L 350.298 216.473567 
Q 350.298 219.290207 353.826 219.290207 
z
" clip-path="url(#p2cc7025763)" style="fill: #ffffff; stroke: #000000; stroke-width: 1.2; stroke-linejoin: miter"/>
   </g>
   <g id="patch_13">
    <path d="M 547.866 219.290207 
L 683.694 219.290207 
Q 687.222 219.290207 687.222 216.473567 
L 687.222 173.754527 
Q 687.222 170.937887 683.694 170.937887 
L 547.866 170.937887 
Q 544.338 170.937887 544.338 173.754527 
L 544.338 216.473567 
Q 544.338 219.290207 547.866 219.290207 
z
" clip-path="url(#p2cc7025763)" style="fill: #ffffff; stroke: #000000; stroke-width: 1.2; stroke-linejoin: miter"/>
   </g>
   <g id="text_4">
    <text style="font: 12.5px 'DejaVu Serif', 'Times New Roman', 'Times', serif; text-anchor: middle" x="227.7" y="117.641851" transform="rotate(-0 227.7 117.641851)">User Engagement</text>
   </g>
   <g id="text_5">
    <text style="fill: #333333; font: italic 10px 'DejaVu Serif', 'Times New Roman', 'Times', serif; text-anchor: middle" x="227.7" y="135.437902" transform="rotate(-0 227.7 135.437902)">(UE)</text>
   </g>
   <g id="text_6">
    <text style="font: 12.5px 'DejaVu Serif', 'Times New Roman', 'Times', serif; text-anchor: middle" x="227.7" y="263.345986" transform="rotate(-0 227.7 263.345986)">User Experience</text>
   </g>
   <g id="text_7">
    <text style="fill: #333333; font: italic 10px 'DejaVu Serif', 'Times New Roman', 'Times', serif; text-anchor: middle" x="227.7" y="280.964302" transform="rotate(-0 227.7 280.964302)">(UX)</text>
   </g>
   <g id="text_8">
    <text style="font: 12.5px 'DejaVu Serif', 'Times New Roman', 'Times', serif; text-anchor: middle" x="427.62" y="190.582786" transform="rotate(-0 427.62 190.582786)">Brand Satisfaction</text>
   </g>
   <g id="text_9">
    <text style="fill: #333333; font: italic 10px 'DejaVu Serif', 'Times New Roman', 'Times', serif; text-anchor: middle" x="427.62" y="208.201102" transform="rotate(-0 427.62 208.201102)">(BSAT) — mediator</text>
   </g>
   <g id="text_10">
    <text style="font: 12.5px 'DejaVu Serif', 'Times New Roman', 'Times', serif; text-anchor: middle" x="615.78" y="190.582786" transform="rotate(-0 615.78 190.582786)">Brand Success</text>
   </g>
   <g id="text_11">
    <text style="fill: #333333; font: italic 10px 'DejaVu Serif', 'Times New Roman', 'Times', serif; text-anchor: middle" x="615.78" y="208.201102" transform="rotate(-0 615.78 208.201102)">(BSUC)</text>
   </g>
   <g id="text_12">
    <g id="patch_14">
     <path d="M 304.59 150.453589 
L 333.09 150.453589 
Q 334.29 150.453589 334.29 149.253589 
L 334.29 139.575464 
Q 334.29 138.375464 333.09 138.375464 
L 304.59 138.375464 
Q 303.39 138.375464 303.39 139.575464 
L 303.39 149.253589 
Q 303.39 150.453589 304.59 150.453589 
z
" style="fill: #ffffff"/>
    </g>
    <!-- $a_1\,(+)$ -->
    <g style="fill: #333333" transform="translate(304.59 147.173902)">
     <text>
      <tspan style="font: italic 10px 'DejaVu Serif'" x="0" y="-0.40625">a</tspan>
      <tspan style="font: 7px 'DejaVu Serif'" x="5.961914" y="1.1500000000000004">1</tspan>
      <tspan style="font: 10px 'DejaVu Serif'" x="12.255338 16.156705 24.535611" y="-0.40625">(+)</tspan>
     </text>
    </g>
   </g>
   <g id="text_13">
    <g id="patch_15">
     <path d="M 304.59 251.852629 
L 333.09 251.852629 
Q 334.29 251.852629 334.29 250.652629 
L 334.29 240.974504 
Q 334.29 239.774504 333.09 239.774504 
L 304.59 239.774504 
Q 303.39 239.774504 303.39 240.974504 
L 303.39 250.652629 
Q 303.39 251.852629 304.59 251.852629 
z
" style="fill: #ffffff"/>
    </g>
    <!-- $a_2\,(+)$ -->
    <g style="fill: #333333" transform="translate(304.59 248.572942)">
     <text>
      <tspan style="font: italic 10px 'DejaVu Serif'" x="0" y="-0.40625">a</tspan>
      <tspan style="font: 7px 'DejaVu Serif'" x="5.961914" y="1.1500000000000004">2</tspan>
      <tspan style="font: 10px 'DejaVu Serif'" x="12.255338 16.156705 24.535611" y="-0.40625">(+)</tspan>
     </text>
    </g>
   </g>
   <g id="text_14">
    <g id="patch_16">
     <path d="M 512.54 188.008789 
L 536.74 188.008789 
Q 537.94 188.008789 537.94 186.808789 
L 537.94 177.130664 
Q 537.94 175.930664 536.74 175.930664 
L 512.54 175.930664 
Q 511.34 175.930664 511.34 177.130664 
L 511.34 186.808789 
Q 511.34 188.008789 512.54 188.008789 
z
" style="fill: #ffffff"/>
    </g>
    <!-- $b\,(+)$ -->
    <g style="fill: #333333" transform="translate(512.54 184.729102)">
     <text>
      <tspan style="font: italic 10px 'DejaVu Serif'" x="0" y="-0.40625">b</tspan>
      <tspan style="font: 10px 'DejaVu Serif'" x="7.981802 11.88317 20.262076" y="-0.40625">(+)</tspan>
     </text>
    </g>
   </g>
   <g id="text_15">
    <g id="patch_17">
     <path d="M 354.75 71.329727 
L 494.61 71.329727 
Q 495.87 71.329727 495.87 70.069727 
L 495.87 59.149727 
Q 495.87 57.889727 494.61 57.889727 
L 354.75 57.889727 
Q 353.49 57.889727 353.49 59.149727 
L 353.49 70.069727 
Q 353.49 71.329727 354.75 71.329727 
z
" style="fill: #ffffff"/>
    </g>
    <!-- H1 (+):  UE $\rightarrow$ BSUC  ($c_1^{\,\prime}$) -->
    <g transform="translate(354.75 67.339727)">
     <text>
      <tspan style="font: italic 10.5px 'DejaVu Serif'" x="0 9.156738 15.837158 19.174805 23.27124 32.069092 36.165527 39.703125 43.040771 46.378418 55.227539 62.892334 79.010449 82.348096 90.06416 97.257275 106.106396 114.140332 117.477979 120.815625 124.912061 135.754126" y="-0.640625">H1 (+):  UE  BSUC  (c)</tspan>
      <tspan style="font: 10.5px 'DejaVu Serif'" x="68.221289" y="-0.640625">→</tspan>
      <tspan style="font: 7.35px 'cmsy10'" x="132.441926" y="-4.8218749999999995">0</tspan>
      <tspan style="font: 7.35px 'DejaVu Serif'" x="130.792676" y="2.2109375">1</tspan>
     </text>
    </g>
   </g>
   <g id="text_16">
    <g id="patch_18">
     <path d="M 354.855 333.277247 
L 494.505 333.277247 
Q 495.765 333.277247 495.765 332.017247 
L 495.765 321.097247 
Q 495.765 319.837247 494.505 319.837247 
L 354.855 319.837247 
Q 353.595 319.837247 353.595 321.097247 
L 353.595 332.017247 
Q 353.595 333.277247 354.855 333.277247 
z
" style="fill: #ffffff"/>
    </g>
    <!-- H2 (+):  UX $\rightarrow$ BSUC  ($c_2^{\,\prime}$) -->
    <g transform="translate(354.855 329.287247)">
     <text>
      <tspan style="font: italic 10.5px 'DejaVu Serif'" x="0 9.156738 15.837158 19.174805 23.27124 32.069092 36.165527 39.703125 43.040771 46.378418 55.227539 62.702637 78.820752 82.158398 89.874463 97.067578 105.916699 113.950635 117.288281 120.625928 124.722363 135.564429" y="-0.640625">H2 (+):  UX  BSUC  (c)</tspan>
      <tspan style="font: 10.5px 'DejaVu Serif'" x="68.031592" y="-0.640625">→</tspan>
      <tspan style="font: 7.35px 'cmsy10'" x="132.252229" y="-4.8218749999999995">0</tspan>
      <tspan style="font: 7.35px 'DejaVu Serif'" x="130.602979" y="2.2109375">2</tspan>
     </text>
    </g>
   </g>
   <g id="text_17">
    <g id="patch_19">
     <path d="M 415.409047 174.597336 
L 533.910953 174.597336 
Q 535.086953 174.597336 535.086953 173.421336 
L 535.086953 152.962918 
Q 535.086953 151.786917 533.910953 151.786917 
L 415.409047 151.786917 
Q 414.233047 151.786917 414.233047 152.962918 
L 414.233047 173.421336 
Q 414.233047 174.597336 415.409047 174.597336 
z
" style="fill: #ffffff"/>
    </g>
    <text style="font: italic 9.8px 'DejaVu Serif', 'Times New Roman', 'Times', serif" transform="translate(415.409047 160.409386)">H3 (+):  BSAT mediates</text>
    <text style="font: italic 9.8px 'DejaVu Serif', 'Times New Roman', 'Times', serif" transform="translate(432.513109 171.383242)">UE / UX → BSUC</text>
   </g>
  </g>
  <g id="text_18">
   <text style="font: 12.5px 'DejaVu Serif', 'Times New Roman', 'Times', serif; text-anchor: middle" x="360" y="16.698047" transform="rotate(-0 360 16.698047)">Figure 4. Conceptual model and hypotheses.</text>
  </g>
  <g id="text_19">
   <text style="fill: #4d4d4d; font: 8.3px 'DejaVu Serif', 'Times New Roman', 'Times', serif" transform="translate(9.426156 380.46112)">Notes. Solid arrows denote hypothesized positive relationships. Brand satisfaction is modelled as a mediator (H3) of the engagement/experience–success links via the</text>
   <text style="fill: #4d4d4d; font: 8.3px 'DejaVu Serif', 'Times New Roman', 'Times', serif" transform="translate(16.237344 389.87332)">indirect paths a₁b and a₂b; c₁′ and c₂′ denote direct effects. P1 (equifinality): multiple sufficient configurations of UE, UX and BSAT can yield high BSUC, evaluated</text>
   <text style="fill: #4d4d4d; font: 8.3px 'DejaVu Serif', 'Times New Roman', 'Times', serif" transform="translate(234.779586 399.28552)">through fuzzy-set qualitative comparative analysis (fsQCA).</text>
  </g>
 </g>
 <defs>
  <clipPath id="p2cc7025763">
   <rect x="7.2" y="30.810047" width="705.6" height="328.608"/>
  </clipPath>
 </defs>
</svg>
